<svg xmlns="http://www.w3.org/2000/svg" width="2000" height="240" viewBox="0 0 2000 240"><path d="M4.14 211.092s251.25-28.372 488.895-28.372c242.738 0 495.48 28.372 495.48 28.372V221.1s-254.417-26.892-495.44-26.892c-237.685 0-488.934 26.89-488.934 26.89v-10.006zm96.615-46.276H79.113L41.08 87.91C33.72 72.993 26.157 56.6 23.424 48.196l-1.26.207c1.05 12.4 1.474 26.9 1.68 40.347l.84 76.066h-7.943c-9.174 0-12.44-8.867-12.44-18.867V20.034h23.536l40.347 79.853c6.095 11.978 13.237 30.68 14.29 34.675l1.26-.42c-.42-4.206-2.104-27.11-2.104-43.08l-.418-71.028h19.542v144.78zm360.194-15.092l-5.04 16.815h-86.37V150.98l58.417-92.287c3.153-5.462 7.355-11.135 10.295-14.918-4.2.42-9.455.63-16.596.63h-49.593l4.833-16.814h83.212v16.184l-57.786 92.29c-3.154 5.467-6.516 9.666-9.036 13.87 4.413-.214 9.245-.214 14.5-.214h53.163zm664.456 3.922c-11.77 7.355-27.538 11.556-42.872 11.556-19.33 0-34.677-6.51-45.812-19.54-11.556-13.45-16.81-30.47-16.81-54.218 0-20.107 8.41-43.118 25.004-56.778 10.512-8.612 22.066-12.396 36.357-12.396 15.767 0 29.626 4.623 40.976 14.5l-9.672 12.61c-10.714-7.776-19.75-10.93-30.885-10.93-13.87 0-24.153 5.797-31.1 18.49-5.054 9.247-7.98 18.326-7.98 35.558 0 19.962 3.563 34.884 10.295 43.71 6.3 8.194 18.694 13.03 31.1 13.03 8.197 0 15.552-2.106 21.43-5.467v-41.185h-26.683l-3.373-16.603h50.023v67.664zm105.34-42.236c0 33.412-17.855 54.637-45.813 54.637-28.15 0-45.596-21.436-45.596-55.69 0-34.038 17.446-55.478 45.175-55.478 31.103 0 46.233 24.796 46.233 56.53zm-21.646.837c0-32.57-9.456-42.446-24.587-42.446-16.81 0-23.733 11.98-23.733 38.455 0 32.15 8.195 42.867 24.585 42.867 14.7 0 23.735-11.34 23.735-38.875zm118.31-54.424l-38.457 106.12h-18.07l-37.605-105.7 19.955-3.153 20.806 63.674c2.302 7.146 4.618 15.552 6.3 22.696 1.68-6.305 3.778-14.5 6.73-23.115l19.966-60.522h20.373zm87.988 56.737h-64.1v2.526c0 9.035 1.27 15.963 4.416 21.01 5.472 8.405 14.074 12.4 24.166 12.4 9.875 0 18.286-3.365 25.846-10.092l7.355 11.562c-10.294 9.034-22.69 13.444-36.355 13.444-29.207 0-47.062-21.22-47.062-55.685 0-18.283 3.564-30.05 12.6-40.767 8.41-9.874 18.707-14.498 31.737-14.498 11.77 0 21.226 3.78 28.58 11.345 9.24 9.458 12.6 21.227 12.817 45.393v3.362zm-20.17-14.288c0-10.088-2.317-18.49-6.517-23.747-3.37-4.203-8.41-7.355-15.13-7.355-14.71 0-22.064 11.978-22.064 31.102h43.71zm90.4-44.76l-6.72 19.33c-1.896-.63-3.36-1.05-5.47-1.05-11.76 0-21.853 9.876-21.853 21.435V163.1h-19.33V85.775c0-12.82-1.464-19.756-3.996-26.27l18.707-4.834c1.895 3.996 3.575 10.928 3.575 16.183v1.894c8.398-12.19 17.434-18.285 28.568-18.285 2.522 0 4.837.417 6.517 1.05zm92.283 107.59h-19.113V92.076c0-9.456-.853-12.818-3.372-16.18-2.1-2.73-5.88-4.204-10.715-4.204-7.57 0-18.91 5.883-26.062 13.45V163.1h-19.113V84.72c0-12.606-1.057-17.44-3.996-25.005l18.286-5.045c2.52 5.045 3.563 9.667 3.563 16.183 6.094-5.045 9.25-7.775 13.665-10.297 6.084-3.573 13.02-5.252 19.548-5.252 11.134 0 21.01 5.882 24.79 14.92 1.678 3.783 2.52 8.406 2.52 13.238v79.64h-.002zm151.296 0h-19.126V87.663c0-11.978-3.78-16.184-12.61-16.184-9.66 0-16.596 6.307-24.587 14.294V163.1h-18.91V88.084c0-11.765-3.36-16.183-13.03-16.183-7.14 0-15.132 3.573-24.167 12.188V163.1h-19.114V85.775c0-14.92-.84-18.914-3.79-26.27l18.07-4.414c2.11 3.575 3.574 8.828 3.574 14.71 9.035-9.456 19.762-14.92 29.638-14.92 9.874 0 19.75 5.252 25.007 16.6 10.5-11.135 21.43-16.6 32.145-16.6 16.392 0 26.902 10.298 26.902 29.634V163.1zm100.636-48.542h-64.088v2.526c0 9.035 1.26 15.963 4.416 21.01 5.46 8.405 14.074 12.4 24.153 12.4 9.876 0 18.287-3.365 25.858-10.092l7.356 11.562c-10.305 9.034-22.702 13.444-36.356 13.444-29.205 0-47.07-21.22-47.07-55.685 0-18.283 3.575-30.05 12.61-40.767 8.4-9.874 18.692-14.498 31.724-14.498 11.77 0 21.228 3.78 28.58 11.345 9.253 9.458 12.612 21.227 12.817 45.393v3.362h.002zm-20.17-14.288c0-10.088-2.317-18.49-6.517-23.747-3.358-4.203-8.41-7.355-15.132-7.355-14.71 0-22.066 11.978-22.066 31.102h43.715zm115.417 62.83h-19.127V92.076c0-9.456-.84-12.818-3.36-16.18-2.1-2.73-5.892-4.204-10.716-4.204-7.57 0-18.922 5.883-26.06 13.45V163.1h-19.128V84.72c0-12.606-1.044-17.44-3.995-25.005l18.285-5.045c2.52 5.045 3.575 9.667 3.575 16.183 6.097-5.045 9.252-7.775 13.655-10.297 6.097-3.573 13.03-5.252 19.548-5.252 11.134 0 21.01 5.882 24.8 14.92 1.682 3.783 2.52 8.406 2.52 13.238v79.64zm71.177-105.28l-5.243 13.658h-20.805v63.466c0 13.024 3.153 17.02 13.65 17.02 3.577 0 6.518-.63 9.876-2.105l2.317 11.772c-5.88 2.94-12.192 4.415-19.126 4.415-6.938 0-14.496-2.104-17.855-5.255-4.416-3.99-7.774-6.096-7.774-21.436V71.48h-12.61V57.823h12.61c0-8.193.202-18.91 1.258-26.896l19.967-4.623c-.853 7.562-1.895 20.803-1.895 31.52h25.63zm-1795.083 56.71h-64.41v2.536c0 9.083 1.27 16.048 4.436 21.118 5.494 8.447 14.146 12.46 24.287 12.46 9.922 0 18.37-3.383 25.972-10.138l7.393 11.615c-10.35 9.082-22.807 13.516-36.534 13.516-29.354 0-47.304-21.328-47.304-55.964 0-18.374 3.588-30.198 12.667-40.967 8.45-9.927 18.796-14.57 31.888-14.57 11.83 0 21.33 3.8 28.724 11.4 9.293 9.504 12.668 21.33 12.88 45.615v3.378zm-20.275-14.356c0-10.14-2.323-18.583-6.543-23.865-3.38-4.223-8.45-7.392-15.205-7.392-14.783 0-22.175 12.04-22.175 31.258h43.922zm166.244-42.66L317.588 164.16h-18.793l-15.415-57.65c-1.902-7.39-6.55-24.915-6.55-24.915h-.634s-4.222 17.948-5.7 23.65L254.66 164.16h-18.583L207.145 58.362l19.64-3.167 13.513 59.338c2.32 10.56 5.49 25.975 5.49 25.975h.635s2.32-14.993 4.856-24.073l16.048-58.918h20.062l14.78 57.23c2.96 11.403 5.912 24.704 5.912 25.76h.85c0-1.056 3.377-18.16 4.855-25.128l13.092-57.863h20.274zm197.026 57.017h-64.407v2.535c0 9.083 1.27 16.048 4.436 21.118 5.49 8.447 14.143 12.46 24.283 12.46 9.922 0 18.372-3.383 25.974-10.138l7.392 11.615c-10.35 9.082-22.808 13.516-36.535 13.516-29.353 0-47.303-21.328-47.303-55.964 0-18.374 3.59-30.198 12.667-40.967 8.45-9.927 18.796-14.57 31.89-14.57 11.824 0 21.328 3.8 28.72 11.4 9.292 9.504 12.668 21.33 12.88 45.615v3.378zm-20.272-14.357c0-10.14-2.325-18.583-6.545-23.865-3.38-4.223-8.447-7.392-15.205-7.392-14.78 0-22.175 12.04-22.175 31.258h43.925zM643.9 154.654l-9.923 13.098c-6.55-2.54-11.616-7.818-14.15-15.203-2.744 3.37-11.612 13.936-29.985 13.936-21.117 0-34.21-10.77-34.21-31.048 0-24.496 19.638-37.586 53.85-37.586 2.532 0 4.646 0 7.392.21v-6.97c0-12.46-1.692-20.905-16.472-20.905-11.195 0-23.863 5.493-32.523 12.035l-8.868-13.937c10.347-5.913 23.863-13.937 44.346-13.937 15.415 0 26.61 5.702 30.62 16.895 1.69 4.643 2.11 8.234 2.11 18.58 0 7.604-.843 23.866-.843 39.28 0 14.573.422 20.487 8.655 25.55zm-27.45-43.29c-2.958-.21-4.644-.422-6.335-.422-14.574 0-23.44 2.748-27.664 7.602-4.013 4.65-5.49 8.447-5.49 15.418 0 11.614 5.914 18.37 16.687 18.37 8.867 0 17.313-5.49 22.17-13.937l.633-27.03zm73.907 51.737c-4.01 1.693-7.39 2.323-12.038 2.323-7.602 0-12.46-2.322-16.47-8.02-3.17-4.436-4.016-8.022-4.016-18.378v-86.24c0-14.992-.63-22.17-2.32-30.405l20.27-4.227c1.906 6.972 1.906 17.107 1.906 30.2v85.608c0 11.19.63 13.73 2.746 15.63 1.265 1.476 4.22 2.112 6.542 1.476l3.38 12.035zm96.38-8.446l-9.924 13.098c-6.55-2.54-11.62-7.818-14.15-15.203-2.745 3.37-11.612 13.936-29.985 13.936-21.118 0-34.212-10.77-34.212-31.048 0-24.496 19.64-37.586 53.852-37.586 2.532 0 4.646 0 7.39.21v-6.97c0-12.46-1.69-20.905-16.47-20.905-11.195 0-23.866 5.493-32.523 12.035l-8.867-13.937c10.346-5.913 23.86-13.937 44.344-13.937 15.417 0 26.612 5.702 30.623 16.895 1.69 4.643 2.107 8.234 2.107 18.58 0 7.604-.842 23.866-.842 39.28 0 14.573.422 20.487 8.656 25.55zm-27.454-43.29c-2.956-.21-4.644-.422-6.335-.422-14.57 0-23.437 2.748-27.66 7.602-4.014 4.65-5.493 8.447-5.493 15.418 0 11.614 5.913 18.37 16.685 18.37 8.867 0 17.317-5.49 22.173-13.937l.63-27.03zm225.763 51.954h-18.584c-1.06-3.168-1.27-4.65-1.902-9.93-7.39 7.816-16.05 11.615-27.24 11.615-27.03 0-42.87-20.272-42.87-53.64 0-22.805 7.814-40.333 22.174-49.623 6.546-4.224 13.094-6.125 20.695-6.125 10.135 0 18.58 3.594 25.76 12.25 0-2.958-.422-19.11-.422-26.29V19.66l19.43 3.167v105.008c.002 17.106.634 28.93 2.958 35.483zm-22.594-26.824V81.166c-5.492-6.545-12.46-9.922-22.387-9.922-8.025 0-14.363 4.01-18.374 10.768-4.013 6.968-5.492 15.416-5.492 29.143 0 20.486 2.538 26.185 8.24 32.1 3.588 3.798 8.448 5.49 15.627 5.49 11.192 0 18.796-5.916 22.387-12.25zm-84.643 26.824h-19.215v-71.38c0-9.503-.85-12.883-3.38-16.258-2.112-2.745-5.913-4.227-10.77-4.227-7.604 0-19.01 5.913-26.187 13.514v78.35h-9.77c-6.162 0-9.45-4.626-9.45-11.85v-66.92c0-12.67-1.05-17.527-4.01-25.13L813.4 54.35c2.535 5.066 3.59 9.713 3.59 16.26 6.127-5.068 9.294-7.813 13.73-10.352 6.12-3.587 13.093-5.276 19.637-5.276 11.19 0 21.116 5.912 24.92 14.993 1.685 3.803 2.53 8.45 2.53 13.307v80.036h.002z"/></svg>