<?xml version="1.0" encoding="UTF-8" standalone="no"?>
<svg width="440px" height="420px" viewBox="0 0 44 42" version="1.1" xmlns="http://www.w3.org/2000/svg" xmlns:xlink="http://www.w3.org/1999/xlink">
	<title>play</title>
	<desc></desc>
	<path d="M39.8809,21.0006 C39.8809,30.3669283 31.8702716,37.9996 21.9409,37.9996 C12.0106684,37.9996 3.9999,30.3670593 3.9999,21.0006 C3.9999,11.6330533 12.0107524,3.9996 21.9409,3.9996 C31.8701876,3.9996 39.8809,11.6331843 39.8809,21.0006 L39.8809,21.0006 L39.8809,21.0006 Z M43.8809,21.0006 C43.8809,9.37975059 34.0373342,-0.0004 21.9409,-0.0004 C9.84363504,-0.0004 -0.0001,9.37958696 -0.0001,21.0006 C-0.0001,32.6206282 9.84364323,41.9996 21.9409,41.9996 C34.037326,41.9996 43.8809,32.6204646 43.8809,21.0006 L43.8809,21.0006 L43.8809,21.0006 Z"></path>
	<polyline points="17.8188 11.319 31.2858 21.001 17.8188 30.681"></polyline>
</svg>
