<svg width="240" height="240" viewBox="0 0 24 24" xmlns="http://www.w3.org/2000/svg"><title>Print this section</title><path d="M3.764.52v6.76H1.062a.816.816 0 0 0-.812.81v9.192c0 .444.366.811.812.811h2.702v5.136c0 .142.13.271.27.271h15.682c.14 0 .27-.129.27-.27v-5.137h2.702a.815.815 0 0 0 .812-.81V8.09a.815.815 0 0 0-.812-.81h-2.702V4.845a.273.273 0 0 0-.077-.195L15.584.326a.27.27 0 0 0-.195-.076H4.034c-.171 0-.27.162-.27.27zm.541.27H15.12v4.056c0 .141.128.27.27.27h4.055V7.28H4.305V.79zm11.354.39l3.398 3.395h-3.398V1.18zM1.062 7.82h21.626c.156 0 .271.115.271.27v9.192c0 .154-.115.27-.27.27h-2.703V15.12a.281.281 0 0 0-.27-.27H4.034a.281.281 0 0 0-.27.27v2.433H1.062a.264.264 0 0 1-.271-.27V8.09c0-.155.115-.27.27-.27zm3.243 15.14h15.14v-7.57H4.305v7.57zm1.892-5.138c0 .128.128.271.27.271h10.814a.282.282 0 0 0 .276-.27.281.281 0 0 0-.276-.27H6.467c-.198 0-.27.142-.27.27zm0 2.704c0 .127.128.27.27.27h10.814a.28.28 0 0 0 .276-.27.282.282 0 0 0-.276-.27H6.467c-.205 0-.27.142-.27.27z" fill="#fff" fill-rule="evenodd"/></svg>