<?xml version="1.0" encoding="UTF-8" standalone="no"?>
<svg width="240px" height="240px" viewBox="0 0 24 24" version="1.1" xmlns="http://www.w3.org/2000/svg" xmlns:xlink="http://www.w3.org/1999/xlink">
    <title>Print this section</title>
    <defs></defs>
    <g stroke-width="1" fill="none" fill-rule="evenodd">
        <g transform="translate(-447.000000, -239.000000)" fill="#ffffff">
            <path d="M450.7645,239.5204 L450.7645,246.2794 L448.0615,246.2794 C447.6165,246.2794 447.2495,246.6454 447.2495,247.0904 L447.2495,256.2824 C447.2495,256.7264 447.6165,257.0934 448.0615,257.0934 L450.7645,257.0934 L450.7645,262.2294 C450.7645,262.3714 450.8935,262.5004 451.0345,262.5004 L466.7155,262.5004 C466.8565,262.5004 466.9855,262.3714 466.9855,262.2294 L466.9855,257.0934 L469.6885,257.0934 C470.1335,257.0934 470.4995,256.7264 470.4995,256.2824 L470.4995,247.0904 C470.4995,246.6454 470.1335,246.2794 469.6885,246.2794 L466.9855,246.2794 L466.9855,243.8464 C466.9875,243.7744 466.9595,243.7034 466.9095,243.6514 L462.5835,239.3264 C462.5325,239.2764 462.4605,239.2484 462.3895,239.2504 L451.0345,239.2504 C450.8625,239.2504 450.7645,239.4124 450.7645,239.5204 L450.7645,239.5204 Z M451.3055,239.7904 L462.1195,239.7904 L462.1195,243.8464 C462.1195,243.9874 462.2475,244.1164 462.3895,244.1164 L466.4445,244.1164 L466.4445,246.2794 L451.3055,246.2794 L451.3055,239.7904 Z M462.6595,240.1794 L466.0565,243.5754 L462.6595,243.5754 L462.6595,240.1794 Z M448.0615,246.8194 L469.6885,246.8194 C469.8435,246.8194 469.9595,246.9354 469.9595,247.0904 L469.9595,256.2824 C469.9595,256.4364 469.8435,256.5524 469.6885,256.5524 L466.9855,256.5524 L466.9855,254.1194 C466.9855,253.9774 466.8565,253.8484 466.7155,253.8484 L451.0345,253.8484 C450.8935,253.8484 450.7645,253.9774 450.7645,254.1194 L450.7645,256.5524 L448.0615,256.5524 C447.9065,256.5524 447.7905,256.4364 447.7905,256.2824 L447.7905,247.0904 C447.7905,246.9354 447.9065,246.8194 448.0615,246.8194 L448.0615,246.8194 Z M451.3055,261.9594 L466.4445,261.9594 L466.4445,254.3894 L451.3055,254.3894 L451.3055,261.9594 Z M453.1975,256.8224 C453.1975,256.9504 453.3255,257.0934 453.4675,257.0934 L464.2815,257.0934 C464.4245,257.0954 464.5565,256.9654 464.5565,256.8224 C464.5565,256.6794 464.4245,256.5504 464.2815,256.5524 L453.4675,256.5524 C453.2685,256.5524 453.1975,256.6954 453.1975,256.8224 L453.1975,256.8224 Z M453.1975,259.5264 C453.1975,259.6534 453.3255,259.7964 453.4675,259.7964 L464.2815,259.7964 C464.4245,259.7994 464.5565,259.6694 464.5565,259.5264 C464.5565,259.3834 464.4245,259.2534 464.2815,259.2554 L453.4675,259.2554 C453.2615,259.2554 453.1975,259.3984 453.1975,259.5264 L453.1975,259.5264 Z"></path>
        </g>
    </g>
</svg>
