<?xml version="1.0" encoding="UTF-8" standalone="no"?>
<svg width="19px" height="19px" viewBox="0 0 19 19" version="1.1" xmlns="http://www.w3.org/2000/svg" xmlns:xlink="http://www.w3.org/1999/xlink">
	<title>Search</title>
	<desc></desc>
	<defs></defs>
	<g transform="translate(0.000000, -1.000000)">
		<path d="M7.1187,15.2359 C11.0495519,15.2359 14.2377,12.048455 14.2377,8.1189 C14.2377,4.18619654 11.0504035,0.9989 7.1187,0.9989 C3.18699654,0.9989 -0.0003,4.18619654 -0.0003,8.1189 C-0.0003,12.048455 3.18784811,15.2359 7.1187,15.2359 L7.1187,15.2359 Z M7.1187,13.5259 C4.13217062,13.5259 1.7097,11.1039636 1.7097,8.1189 C1.7097,5.13060346 4.13140346,2.7089 7.1187,2.7089 C10.1059965,2.7089 12.5277,5.13060346 12.5277,8.1189 C12.5277,11.1039636 10.1052294,13.5259 7.1187,13.5259 L7.1187,13.5259 Z"></path>
		<polygon points="10.4846701 13.7016387 17.1056701 20.0416387 18.2883299 18.8065613 11.6673299 12.4665613"></polygon>
	</g>
</svg>
