<!-- Generated by IcoMoon.io -->
<svg version="1.1" xmlns="http://www.w3.org/2000/svg" width="14" height="14" viewBox="0 0 14 14">
<title>error</title>
<path d="M8 10.742v-1.484c0-0.141-0.109-0.258-0.25-0.258h-1.5c-0.141 0-0.25 0.117-0.25 0.258v1.484c0 0.141 0.109 0.258 0.25 0.258h1.5c0.141 0 0.25-0.117 0.25-0.258zM7.984 7.82l0.141-3.586c0-0.047-0.023-0.109-0.078-0.148-0.047-0.039-0.117-0.086-0.187-0.086h-1.719c-0.070 0-0.141 0.047-0.187 0.086-0.055 0.039-0.078 0.117-0.078 0.164l0.133 3.57c0 0.102 0.117 0.18 0.266 0.18h1.445c0.141 0 0.258-0.078 0.266-0.18zM7.875 0.523l6 11c0.172 0.305 0.164 0.68-0.016 0.984s-0.508 0.492-0.859 0.492h-12c-0.352 0-0.68-0.187-0.859-0.492s-0.187-0.68-0.016-0.984l6-11c0.172-0.32 0.508-0.523 0.875-0.523s0.703 0.203 0.875 0.523z"></path>
</svg>
