<!-- Generated by IcoMoon.io -->
<svg version="1.1" xmlns="http://www.w3.org/2000/svg" width="13" height="14" viewBox="0 0 13 14">
<title>form</title>
<path d="M11 7.266v2.484c0 1.242-1.008 2.25-2.25 2.25h-6.5c-1.242 0-2.25-1.008-2.25-2.25v-6.5c0-1.242 1.008-2.25 2.25-2.25h6.5c0.312 0 0.625 0.062 0.914 0.195 0.070 0.031 0.125 0.102 0.141 0.18 0.016 0.086-0.008 0.164-0.070 0.227l-0.383 0.383c-0.047 0.047-0.117 0.078-0.18 0.078-0.023 0-0.047-0.008-0.070-0.016-0.117-0.031-0.234-0.047-0.352-0.047h-6.5c-0.688 0-1.25 0.563-1.25 1.25v6.5c0 0.688 0.563 1.25 1.25 1.25h6.5c0.688 0 1.25-0.563 1.25-1.25v-1.984c0-0.062 0.023-0.125 0.070-0.172l0.5-0.5c0.055-0.055 0.117-0.078 0.18-0.078 0.031 0 0.062 0.008 0.094 0.023 0.094 0.039 0.156 0.125 0.156 0.227zM12.805 3.445l-6.359 6.359c-0.25 0.25-0.641 0.25-0.891 0l-3.359-3.359c-0.25-0.25-0.25-0.641 0-0.891l0.859-0.859c0.25-0.25 0.641-0.25 0.891 0l2.055 2.055 5.055-5.055c0.25-0.25 0.641-0.25 0.891 0l0.859 0.859c0.25 0.25 0.25 0.641 0 0.891z"></path>
</svg>
